# xmcd
#
# Track frame offsets: 
#        150
#        14842
#        26845
#        39082
#        53032
#        67930
#        81212
#        93217
#        104910
#        118567
#        128742
#        140172
#        153345
#        164695
#        174117
#        187377
#        204907
#        216487
#        227942
#        238395
#        248087
#        259050
#        270610
#        281605
#        295627
#        307690
#        320590
#
# Disc length: 4451 seconds
#
# Revision: 4
# Processed by: cddbd v1.5.2PL0 Copyright (c) Steve Scherf et al.
# Submitted via: ExactAudioCopy v1.0b3
#
DISCID=9011611b
DTITLE=Glen Campbell - Rhinestone Cowboy - The Best Of Glen Campbell
DYEAR=2002
DGENRE=Country
TTITLE0=Rhinestone Cowboy
TTITLE1=Galveston
TTITLE2=By The Time I Get To Phoenix
TTITLE3=Wichita Lineman
TTITLE4=Your Cheatin' Heart
TTITLE5=Gentle On My Mind
TTITLE6=Guess I'm Dumb
TTITLE7=Less Of Me
TTITLE8=Mary In The Morning
TTITLE9=Without Her
TTITLE10=Hey Little One
TTITLE11=Where's The Playground Susie
TTITLE12=True Grit (From the film 'True Grit')
TTITLE13=Bobbie Gentry and Glen Campbell - Let It Be Me
TTITLE14=Honey Come Back
TTITLE15=The Last Thing On My Mind
TTITLE16=Dreams Of The Everyday Housewife
TTITLE17=Everything A Man Could Ever Need
TTITLE18=Reason To Believe
TTITLE19=If This Is Love
TTITLE20=Try A Little Kindness
TTITLE21=Bobbie Gentry and Glen Campbell - All I Have To Do Is Dream
TTITLE22=It's Only Make Believe
TTITLE23=Country Boy (You Got Your Feet In L.A.)
TTITLE24=Oh What A Woman
TTITLE25=Sunflower
TTITLE26=Southern Nights
EXTD=
EXTT0=
EXTT1=
EXTT2=
EXTT3=
EXTT4=
EXTT5=
EXTT6=
EXTT7=
EXTT8=
EXTT9=
EXTT10=
EXTT11=
EXTT12=
EXTT13=
EXTT14=
EXTT15=
EXTT16=
EXTT17=
EXTT18=
EXTT19=
EXTT20=
EXTT21=
EXTT22=
EXTT23=
EXTT24=
EXTT25=
EXTT26=
PLAYORDER=
